# xmcd CD database file
#
# Track frame offsets:
#	183
#	14780
#	29573
#	48175
#	72080
#	86525
#	105300
#	117058
#	133813
#	147345
#	163850
#	180070
#
# Disc length: 2619 seconds
#
# Revision: 1
# Processed by: cddbd v1.4PL0 Copyright (c) Steve Scherf et al.
# Submitted via: NotifyCDPlayer 1.60beta14
#
DISCID=9b0a390c
DTITLE=Diverse - Low Blows - An Anthology Of Chicago Harmonica Blues
DYEAR=1900
DGENRE=
TTITLE0=Big Guitar Red and Good Rockin´ Charles - Found My Baby
TTITLE1=Big Leon Brooks - Kicking Up Dust
TTITLE2=Mojo Buford - Don´t Go No Farther
TTITLE3=Easy Baby - Good Morning Mr. Blues
TTITLE4=Good Rockin´ Charles - She Loves Another Man
TTITLE5=Big Leon Brooks - Pink Champagne
TTITLE6=Joe Carter and Big John Wrencher - Take A Little Walk With Me
TTITLE7=Golden Wheeler - Good Lover
TTITLE8=Big Walter Horton and Carey Bell - Avenue Stomp
TTITLE9=Good Rockin´ Charles - Ground Hog Blues
TTITLE10=Golden Wheeler - Evil Woman
TTITLE11=Big Leon Brooks - You Know
EXTD=Bedrock REcords, London\nBED CD 15
EXTT0=
EXTT1=
EXTT2=
EXTT3=
EXTT4=
EXTT5=
EXTT6=
EXTT7=
EXTT8=
EXTT9=
EXTT10=
EXTT11=
PLAYORDER=
